<?xml version="1.0" encoding="UTF-8" standalone="no"?>
<svg
   xmlns:dc="http://purl.org/dc/elements/1.1/"
   xmlns:cc="http://creativecommons.org/ns#"
   xmlns:rdf="http://www.w3.org/1999/02/22-rdf-syntax-ns#"
   xmlns:svg="http://www.w3.org/2000/svg"
   xmlns="http://www.w3.org/2000/svg"
   xmlns:sodipodi="http://sodipodi.sourceforge.net/DTD/sodipodi-0.dtd"
   xmlns:inkscape="http://www.inkscape.org/namespaces/inkscape"
   id="Layer_1"
   data-name="Layer 1"
   viewBox="0 0 295.8 262.74"
   version="1.1"
   sodipodi:docname="rcn.svg"
   inkscape:version="0.92.3 (2405546, 2018-03-11)">
  <metadata
     id="metadata5551">
    <rdf:RDF>
      <cc:Work
         rdf:about="">
        <dc:format>image/svg+xml</dc:format>
        <dc:type
           rdf:resource="http://purl.org/dc/dcmitype/StillImage" />
        <dc:title>Artboard 20</dc:title>
      </cc:Work>
    </rdf:RDF>
  </metadata>
  <sodipodi:namedview
     pagecolor="#ffffff"
     bordercolor="#666666"
     borderopacity="1"
     objecttolerance="10"
     gridtolerance="10"
     guidetolerance="10"
     inkscape:pageopacity="0"
     inkscape:pageshadow="2"
     inkscape:window-width="1276"
     inkscape:window-height="2117"
     id="namedview5549"
     showgrid="false"
     inkscape:zoom="0.89822642"
     inkscape:cx="-49.711651"
     inkscape:cy="131.37"
     inkscape:window-x="2560"
     inkscape:window-y="18"
     inkscape:window-maximized="0"
     inkscape:current-layer="Layer_1" />
  <defs
     id="defs5542">
    <style
       id="style5540">.cls-1{fill:#4155ff;}</style>
  </defs>
  <title
     id="title5544">Artboard 20</title>
  <path
     class="cls-1"
     d="M293.28,72.91A8.9,8.9,0,0,0,284.89,67a9,9,0,0,0-8.06,5.09A152.25,152.25,0,0,1,269,86.57,129.32,129.32,0,0,0,147.9,2.27c-71.18,0-129.1,57.92-129.1,129.1a128.6,128.6,0,0,0,1.93,22.26A165.52,165.52,0,0,0,2.86,183,8.91,8.91,0,0,0,19,190.66a152.25,152.25,0,0,1,7.85-14.49,129.1,129.1,0,0,0,248.25-67.06,164.93,164.93,0,0,0,17.87-29.39A8.85,8.85,0,0,0,293.28,72.91Zm-34.11,58.46A111.27,111.27,0,0,1,39.9,158.15C60.37,134.1,88.72,117,124.61,107.07a247.71,247.71,0,0,1,55.52-8.48l-26.65,26.66,12.61,12.6,48.29-48.3-55-55L146.8,47.17l33.55,33.54a264.81,264.81,0,0,0-60,9c-24.31,6.65-45.94,16.66-64.3,29.74a166.76,166.76,0,0,0-19.34,16.12c-.06-1.41-.09-2.82-.09-4.24a111.28,111.28,0,0,1,219.28-26.78c-20.47,24-48.83,41.18-84.72,51.08a247.62,247.62,0,0,1-55.52,8.48l26.65-26.66-12.61-12.6-48.29,48.3,55,55L149,215.57,115.46,182a265,265,0,0,0,60-9c24.31-6.66,45.94-16.66,64.3-29.74a165.92,165.92,0,0,0,19.34-16.12C259.14,128.54,259.17,130,259.17,131.37Z"
     id="path5546"
     style="fill:#ffffff;fill-opacity:1" />
</svg>
